<svg xmlns="http://www.w3.org/2000/svg" xmlns:xlink="http://www.w3.org/1999/xlink" width="500" zoomAndPan="magnify" viewBox="0 0 375 374.999991" height="500" preserveAspectRatio="xMidYMid meet" version="1.0"><defs><g/><clipPath id="00f04eddd8"><path d="M 120 150.195312 L 211.785156 150.195312 L 211.785156 255 L 120 255 Z M 120 150.195312 " clip-rule="nonzero"/></clipPath><clipPath id="243855abf0"><path d="M 124 164 L 187 164 L 187 259.976562 L 124 259.976562 Z M 124 164 " clip-rule="nonzero"/></clipPath><clipPath id="9afc6f60fb"><path d="M 149.660156 145.246094 L 239.679688 145.246094 L 239.679688 255.027344 L 149.660156 255.027344 Z M 149.660156 145.246094 " clip-rule="nonzero"/></clipPath></defs><g clip-path="url(#00f04eddd8)"><path fill="#ffffff" d="M 153.160156 194.0625 L 179.15625 165.757812 L 179.15625 165.917969 C 183.484375 161.273438 185.664062 157.914062 185.664062 155.972656 C 185.664062 154.714844 185.179688 153.871094 184.207031 153.464844 C 183.199219 153.058594 181.742188 152.859375 179.761719 152.859375 L 173.371094 152.859375 L 173.371094 150.195312 L 209.195312 150.195312 L 209.195312 152.871094 C 200.992188 152.425781 194.71875 154.167969 190.351562 158.003906 C 186.386719 161.925781 182.109375 166.492188 177.414062 171.664062 C 172.765625 176.875 167.753906 182.542969 162.492188 188.644531 L 171.667969 203.117188 L 171.339844 202.753906 L 172.796875 207.605469 C 170.042969 205.019531 166.8125 202.921875 163.699219 200.980469 C 160.15625 198.75 156.519531 196.609375 153.160156 194.0625 Z M 129.949219 167.503906 L 129.949219 152.871094 L 120.933594 152.871094 L 120.933594 150.195312 L 155.945312 150.195312 L 155.945312 152.871094 L 147.859375 152.871094 L 147.859375 189.457031 L 143.214844 185.089844 L 143.449219 186.425781 C 142.480469 185.128906 141.429688 183.878906 140.378906 182.621094 C 137.101562 178.660156 133.464844 174.617188 131.117188 170.050781 C 130.679688 169.199219 130.273438 168.355469 129.949219 167.503906 Z M 147.859375 230.570312 L 147.859375 251.394531 L 156.546875 251.394531 L 156.546875 254.023438 L 120.933594 254.023438 L 120.933594 251.394531 L 129.949219 251.394531 L 129.949219 207.933594 C 131.679688 210.765625 133.710938 213.472656 135.929688 215.9375 L 134.960938 215.414062 L 144.660156 226.976562 C 145.679688 228.222656 146.769531 229.402344 147.859375 230.570312 Z M 202.320312 251.394531 L 211.492188 251.394531 L 211.492188 254.023438 L 186.835938 254.023438 C 186.507812 251.4375 186.152344 248.890625 185.703125 246.304688 C 190.113281 242.339844 190.273438 235.949219 188.933594 230.292969 Z M 202.320312 251.394531 " fill-opacity="1" fill-rule="evenodd"/></g><g clip-path="url(#243855abf0)"><path fill="#efaf01" d="M 185.296875 227.984375 C 184.613281 230.53125 183.476562 232.960938 181.625 235.21875 C 185.101562 224.507812 181.949219 219.128906 177.859375 214.484375 C 178.75 217.394531 179.066406 220.386719 177.371094 224.707031 C 178.015625 207.527344 159.460938 204.328125 147.414062 192.925781 C 147.742188 194.867188 148.265625 196.847656 147.253906 198.460938 C 142.164062 185.285156 128.898438 177.804688 126.113281 164.539062 C 119.039062 190.734375 133.960938 222.152344 162.175781 227.976562 C 156.714844 228.421875 151.546875 227.777344 146.847656 225.183594 C 153.765625 233.425781 161.523438 239.773438 171.347656 240.417969 C 168.722656 241.46875 165.890625 241.675781 163.015625 241.589844 C 169.160156 245.789062 175.144531 247.285156 179.550781 246.3125 C 177.648438 234.988281 169.933594 222.984375 159.132812 213.925781 C 146.929688 203.683594 131.445312 190.824219 129.382812 179.996094 C 133.753906 192.449219 146.769531 201.949219 159.261719 212.828125 C 167.464844 219.980469 174.984375 228.027344 179.117188 238.140625 C 182.070312 245.292969 182.710938 252.207031 182.710938 259.9375 L 184.574219 259.976562 C 184.167969 255.003906 183.566406 250.070312 182.59375 245.136719 C 186.714844 242.539062 188.332031 236.714844 185.296875 227.984375 Z M 185.296875 227.984375 " fill-opacity="1" fill-rule="evenodd"/></g><g clip-path="url(#9afc6f60fb)"><path fill="#1e6b09" d="M 209.304688 194.714844 L 203.324219 194.714844 C 216.988281 194.714844 228.050781 183.636719 228.050781 169.992188 C 228.050781 156.328125 216.988281 145.246094 203.324219 145.246094 L 149.671875 145.246094 L 149.671875 148.226562 L 160.796875 148.226562 L 160.796875 251.390625 L 149.671875 251.390625 L 149.671875 255.027344 L 209.304688 255.027344 C 225.945312 255.027344 239.457031 241.535156 239.457031 224.871094 C 239.4375 208.207031 225.945312 194.714844 209.304688 194.714844 Z M 178.054688 148.226562 L 190.953125 148.226562 C 202.972656 148.226562 212.71875 157.96875 212.71875 169.992188 C 212.71875 182.015625 202.972656 191.761719 190.953125 191.761719 L 178.054688 191.761719 Z M 195.921875 251.390625 L 178.054688 251.390625 L 178.054688 198.328125 L 195.921875 198.328125 C 210.574219 198.328125 222.441406 210.222656 222.441406 224.871094 C 222.441406 239.523438 210.574219 251.390625 195.921875 251.390625 Z M 195.921875 251.390625 " fill-opacity="1" fill-rule="nonzero"/></g><g fill="#ffffff" fill-opacity="1"><g transform="translate(102.093857, 157.197634)"><g><path d="M 0.515625 -0.671875 L -0.296875 -1.3125 C -0.503906 -1.46875 -0.554688 -1.65625 -0.453125 -1.875 L 0.203125 -3.125 L -10.859375 -11.71875 C -11.460938 -11.1875 -11.820312 -10.878906 -11.9375 -10.796875 C -12.125 -10.640625 -12.316406 -10.644531 -12.515625 -10.8125 L -13.34375 -11.4375 L -9.28125 -16.65625 C -8.613281 -17.507812 -7.925781 -18.195312 -7.21875 -18.71875 L -7.25 -18.734375 C -5.132812 -20.160156 -3.046875 -20.070312 -0.984375 -18.46875 C 0.335938 -17.4375 1.046875 -16.1875 1.140625 -14.71875 C 1.222656 -13.125 0.640625 -11.523438 -0.609375 -9.921875 L -2.140625 -7.9375 L 1.625 -5.015625 C 1.789062 -5.117188 2.15625 -5.429688 2.71875 -5.953125 C 2.90625 -6.097656 3.101562 -6.09375 3.3125 -5.9375 L 4.125 -5.296875 Z M -3.65625 -9.109375 L -2.125 -11.09375 C -1.3125 -12.132812 -0.941406 -13.140625 -1.015625 -14.109375 C -1.085938 -15.097656 -1.5625 -15.9375 -2.4375 -16.625 L -2.484375 -16.625 C -3.347656 -17.289062 -4.242188 -17.550781 -5.171875 -17.40625 C -6.066406 -17.25 -6.945312 -16.617188 -7.8125 -15.515625 L -9.34375 -13.53125 Z M -3.65625 -9.109375 "/></g></g></g><g fill="#ffffff" fill-opacity="1"><g transform="translate(110.531585, 146.590423)"><g><path d="M 0.546875 -0.578125 L -0.203125 -1.3125 C -0.398438 -1.5 -0.425781 -1.691406 -0.28125 -1.890625 L 0.46875 -3.078125 L -9.9375 -13.15625 C -10.550781 -12.707031 -10.929688 -12.441406 -11.078125 -12.359375 C -11.296875 -12.222656 -11.492188 -12.242188 -11.671875 -12.421875 L -12.421875 -13.140625 L -9.671875 -15.96875 L 2 -4.671875 C 2.582031 -5.085938 2.972656 -5.347656 3.171875 -5.453125 C 3.398438 -5.609375 3.609375 -5.597656 3.796875 -5.421875 L 4.546875 -4.6875 Z M 0.546875 -0.578125 "/></g></g></g><g fill="#ffffff" fill-opacity="1"><g transform="translate(114.639603, 141.969461)"><g><path d="M -6.984375 -8.984375 L -7.640625 -9.78125 L -4.578125 -12.3125 L 0.453125 -6.234375 C 1.066406 -5.484375 1.695312 -5.050781 2.34375 -4.9375 C 3.007812 -4.820312 3.675781 -5.039062 4.34375 -5.59375 L 4.359375 -5.578125 C 5.296875 -6.347656 5.789062 -7.5 5.84375 -9.03125 L 1.15625 -14.703125 C 1.019531 -14.660156 0.601562 -14.4375 -0.09375 -14.03125 C -0.3125 -13.914062 -0.503906 -13.957031 -0.671875 -14.15625 L -1.34375 -14.984375 L 0 -16.109375 L 1.6875 -17.5 L 8.46875 -9.296875 C 9.175781 -9.691406 9.597656 -9.910156 9.734375 -9.953125 C 9.953125 -10.078125 10.140625 -10.046875 10.296875 -9.859375 L 10.96875 -9.03125 L 8.609375 -7.078125 C 8.390625 -6.890625 8.140625 -6.890625 7.859375 -7.078125 L 6.875 -7.984375 C 6.820312 -6.222656 6.1875 -4.835938 4.96875 -3.828125 C 3.945312 -2.984375 2.878906 -2.660156 1.765625 -2.859375 C 0.648438 -3.085938 -0.347656 -3.734375 -1.234375 -4.796875 L -5.140625 -9.53125 C -5.816406 -9.15625 -6.234375 -8.9375 -6.390625 -8.875 C -6.617188 -8.75 -6.816406 -8.785156 -6.984375 -8.984375 Z M -6.984375 -8.984375 "/></g></g></g><g fill="#ffffff" fill-opacity="1"><g transform="translate(124.644401, 133.095452)"><g><path d="M 0.734375 -0.40625 L 0.234375 -1.3125 C 0.109375 -1.539062 0.128906 -1.726562 0.296875 -1.875 L 1.40625 -2.8125 L -2.890625 -10.546875 C -3.679688 -10.273438 -4.140625 -10.125 -4.265625 -10.09375 C -4.484375 -10.039062 -4.660156 -10.125 -4.796875 -10.34375 L -5.296875 -11.25 L -3.765625 -12.109375 L -2.640625 -12.71875 C -2.378906 -12.875 -2.128906 -12.84375 -1.890625 -12.625 L -1.140625 -11.59375 L -1.140625 -11.578125 C -0.847656 -13.210938 -0.140625 -14.34375 0.984375 -14.96875 C 1.722656 -15.375 2.441406 -15.5 3.140625 -15.34375 C 3.816406 -15.1875 4.453125 -14.816406 5.046875 -14.234375 C 4.921875 -15.179688 5.078125 -16.015625 5.515625 -16.734375 C 5.941406 -17.472656 6.460938 -18.015625 7.078125 -18.359375 C 7.679688 -18.691406 8.289062 -18.90625 8.90625 -19 C 9.457031 -19.082031 9.988281 -19.03125 10.5 -18.84375 C 11.539062 -18.476562 12.425781 -17.640625 13.15625 -16.328125 L 16.125 -10.984375 C 16.914062 -11.242188 17.375 -11.382812 17.5 -11.40625 C 17.738281 -11.488281 17.921875 -11.421875 18.046875 -11.203125 L 18.5625 -10.25 L 15.109375 -8.34375 L 11.28125 -15.265625 C 10.789062 -16.140625 10.242188 -16.679688 9.640625 -16.890625 C 8.992188 -17.097656 8.328125 -17.015625 7.640625 -16.640625 C 6.972656 -16.265625 6.546875 -15.753906 6.359375 -15.109375 C 6.160156 -14.367188 6.289062 -13.585938 6.75 -12.765625 L 9.71875 -7.421875 C 9.75 -7.421875 9.820312 -7.4375 9.9375 -7.46875 C 10.0625 -7.5 10.222656 -7.546875 10.421875 -7.609375 C 10.617188 -7.679688 10.832031 -7.753906 11.0625 -7.828125 C 11.300781 -7.910156 11.484375 -7.84375 11.609375 -7.625 L 12.125 -6.6875 L 8.671875 -4.78125 L 4.828125 -11.703125 C 3.867188 -13.421875 2.703125 -13.898438 1.328125 -13.140625 C 0.441406 -12.640625 -0.101562 -11.722656 -0.3125 -10.390625 L 3.3125 -3.875 L 3.96875 -4.078125 C 4.394531 -4.210938 4.625 -4.289062 4.65625 -4.3125 C 4.90625 -4.382812 5.09375 -4.304688 5.21875 -4.078125 L 5.71875 -3.171875 Z M 0.734375 -0.40625 "/></g></g></g><g fill="#ffffff" fill-opacity="1"><g transform="translate(142.583868, 123.463916)"><g><path d="M -1.6875 -6.265625 C -1.96875 -7.066406 -2.097656 -7.867188 -2.078125 -8.671875 C -2.054688 -9.523438 -1.90625 -10.269531 -1.625 -10.90625 C -1.34375 -11.570312 -0.910156 -12.1875 -0.328125 -12.75 C 0.222656 -13.28125 0.929688 -13.695312 1.796875 -14 L 1.734375 -13.984375 C 2.421875 -14.210938 3.113281 -14.316406 3.8125 -14.296875 C 4.507812 -14.285156 5.132812 -14.140625 5.6875 -13.859375 C 6.332031 -13.515625 6.863281 -13.078125 7.28125 -12.546875 C 7.769531 -11.953125 8.15625 -11.257812 8.4375 -10.46875 C 8.5625 -10.113281 8.601562 -9.890625 8.5625 -9.796875 C 8.519531 -9.648438 8.398438 -9.539062 8.203125 -9.46875 L 0.421875 -6.75 C 0.671875 -6.039062 0.992188 -5.425781 1.390625 -4.90625 C 1.722656 -4.488281 2.140625 -4.128906 2.640625 -3.828125 C 3.117188 -3.566406 3.601562 -3.429688 4.09375 -3.421875 C 4.644531 -3.390625 5.175781 -3.460938 5.6875 -3.640625 C 6.238281 -3.835938 6.664062 -4.050781 6.96875 -4.28125 C 7.207031 -4.457031 7.484375 -4.703125 7.796875 -5.015625 C 8.015625 -5.242188 8.203125 -5.445312 8.359375 -5.625 C 8.515625 -5.8125 8.648438 -5.925781 8.765625 -5.96875 C 8.929688 -6.03125 9.085938 -6.015625 9.234375 -5.921875 L 10.078125 -5.359375 C 9.953125 -4.984375 9.734375 -4.613281 9.421875 -4.25 C 9.023438 -3.769531 8.710938 -3.441406 8.484375 -3.265625 C 8.035156 -2.921875 7.660156 -2.660156 7.359375 -2.484375 C 6.921875 -2.265625 6.507812 -2.085938 6.125 -1.953125 C 5.289062 -1.660156 4.492188 -1.53125 3.734375 -1.5625 C 2.984375 -1.601562 2.242188 -1.804688 1.515625 -2.171875 C 0.867188 -2.492188 0.257812 -3.015625 -0.3125 -3.734375 C -0.875 -4.410156 -1.332031 -5.253906 -1.6875 -6.265625 Z M 0.078125 -8.03125 L 6.46875 -10.265625 C 6.3125 -10.710938 6.085938 -11.117188 5.796875 -11.484375 C 5.460938 -11.890625 5.15625 -12.175781 4.875 -12.34375 C 4.507812 -12.53125 4.113281 -12.632812 3.6875 -12.65625 C 3.269531 -12.6875 2.820312 -12.617188 2.34375 -12.453125 L 2.34375 -12.484375 C 1.34375 -12.140625 0.664062 -11.585938 0.3125 -10.828125 C -0.0507812 -10.003906 -0.128906 -9.070312 0.078125 -8.03125 Z M 0.078125 -8.03125 "/></g></g></g><g fill="#ffffff" fill-opacity="1"><g transform="translate(152.957295, 119.749426)"><g><path d="M 0.6875 -0.90625 L -0.25 -5.203125 L 0.921875 -5.453125 C 1.191406 -5.515625 1.378906 -5.421875 1.484375 -5.171875 C 1.535156 -5.035156 1.660156 -4.648438 1.859375 -4.015625 L 2.15625 -2.96875 C 3.5 -2.789062 4.523438 -2.78125 5.234375 -2.9375 C 5.910156 -3.082031 6.484375 -3.296875 6.953125 -3.578125 C 7.378906 -3.816406 7.695312 -4.109375 7.90625 -4.453125 C 8.394531 -5.148438 8.535156 -5.976562 8.328125 -6.9375 C 8.128906 -7.863281 7.546875 -8.472656 6.578125 -8.765625 C 6.097656 -8.921875 5.628906 -9.019531 5.171875 -9.0625 C 3.367188 -9.21875 2.285156 -9.332031 1.921875 -9.40625 C 1.429688 -9.5 0.929688 -9.6875 0.421875 -9.96875 C -0.597656 -10.550781 -1.257812 -11.53125 -1.5625 -12.90625 C -1.832031 -14.164062 -1.609375 -15.351562 -0.890625 -16.46875 C -0.117188 -17.632812 1.050781 -18.390625 2.625 -18.734375 C 4.28125 -19.085938 5.953125 -19.113281 7.640625 -18.8125 L 8.5 -14.859375 L 7.359375 -14.609375 C 7.078125 -14.546875 6.878906 -14.648438 6.765625 -14.921875 C 6.765625 -14.929688 6.742188 -15.007812 6.703125 -15.15625 C 6.660156 -15.3125 6.582031 -15.554688 6.46875 -15.890625 C 6.363281 -16.234375 6.25 -16.613281 6.125 -17.03125 C 4.96875 -17.09375 3.992188 -17.035156 3.203125 -16.859375 C 2.171875 -16.640625 1.429688 -16.207031 0.984375 -15.5625 C 0.546875 -14.957031 0.414062 -14.265625 0.59375 -13.484375 C 0.769531 -12.640625 1.335938 -12.070312 2.296875 -11.78125 C 2.753906 -11.613281 3.25 -11.503906 3.78125 -11.453125 C 5.269531 -11.296875 6.359375 -11.15625 7.046875 -11.03125 L 7 -11.03125 C 8.882812 -10.632812 10.019531 -9.535156 10.40625 -7.734375 C 10.75 -6.160156 10.535156 -4.769531 9.765625 -3.5625 C 8.953125 -2.289062 7.644531 -1.460938 5.84375 -1.078125 C 5.09375 -0.910156 4.296875 -0.8125 3.453125 -0.78125 C 2.847656 -0.75 2.171875 -0.753906 1.421875 -0.796875 Z M 0.6875 -0.90625 "/></g></g></g><g fill="#ffffff" fill-opacity="1"><g transform="translate(164.193103, 117.351572)"><g><path d="M -0.859375 -11.03125 L -0.953125 -11.875 L 1.046875 -12.375 L 1.109375 -16.234375 C 1.097656 -16.359375 1.140625 -16.46875 1.234375 -16.5625 C 1.316406 -16.625 1.429688 -16.664062 1.578125 -16.6875 L 2.65625 -16.796875 L 3.109375 -12.5625 L 6.65625 -12.953125 L 6.828125 -11.359375 L 3.28125 -10.96875 L 4.078125 -3.5625 C 4.128906 -3.019531 4.289062 -2.644531 4.5625 -2.4375 C 4.832031 -2.207031 5.179688 -2.117188 5.609375 -2.171875 C 5.796875 -2.191406 6 -2.242188 6.21875 -2.328125 C 6.332031 -2.378906 6.460938 -2.46875 6.609375 -2.59375 C 6.640625 -2.601562 6.6875 -2.632812 6.75 -2.6875 C 6.8125 -2.75 6.859375 -2.789062 6.890625 -2.8125 C 7.003906 -2.882812 7.078125 -2.925781 7.109375 -2.9375 C 7.222656 -2.945312 7.335938 -2.894531 7.453125 -2.78125 L 8.1875 -1.828125 C 7.78125 -1.378906 7.351562 -1.050781 6.90625 -0.84375 C 6.394531 -0.59375 5.859375 -0.4375 5.296875 -0.375 C 4.359375 -0.28125 3.585938 -0.476562 2.984375 -0.96875 C 2.398438 -1.425781 2.050781 -2.179688 1.9375 -3.234375 L 1.125 -10.78125 L -0.34375 -10.609375 C -0.488281 -10.597656 -0.609375 -10.617188 -0.703125 -10.671875 C -0.785156 -10.722656 -0.835938 -10.84375 -0.859375 -11.03125 Z M -0.859375 -11.03125 "/></g></g></g><g fill="#ffffff" fill-opacity="1"><g transform="translate(172.203393, 116.406846)"><g><path d="M 0.84375 -0.015625 L 0.828125 -1.046875 C 0.828125 -1.304688 0.945312 -1.460938 1.1875 -1.515625 L 2.578125 -1.796875 L 2.5 -10.65625 C 1.695312 -10.78125 1.226562 -10.867188 1.09375 -10.921875 C 0.851562 -10.972656 0.734375 -11.128906 0.734375 -11.390625 L 0.734375 -12.421875 L 2.484375 -12.4375 L 3.75 -12.4375 C 3.96875 -12.445312 4.117188 -12.410156 4.203125 -12.328125 C 4.285156 -12.242188 4.351562 -12.085938 4.40625 -11.859375 L 4.5625 -9.921875 L 4.59375 -9.921875 C 5.476562 -11.785156 6.726562 -12.722656 8.34375 -12.734375 C 8.976562 -12.742188 9.546875 -12.597656 10.046875 -12.296875 L 9.78125 -10.65625 C 9.726562 -10.445312 9.625 -10.34375 9.46875 -10.34375 C 9.34375 -10.34375 9.148438 -10.375 8.890625 -10.4375 C 8.585938 -10.53125 8.25 -10.578125 7.875 -10.578125 C 6.4375 -10.566406 5.378906 -9.6875 4.703125 -7.9375 L 4.765625 -1.8125 C 4.816406 -1.789062 4.90625 -1.769531 5.03125 -1.75 C 5.15625 -1.726562 5.320312 -1.703125 5.53125 -1.671875 C 5.75 -1.640625 5.957031 -1.601562 6.15625 -1.5625 C 6.40625 -1.507812 6.53125 -1.351562 6.53125 -1.09375 L 6.546875 -0.0625 Z M 0.84375 -0.015625 "/></g></g></g><g fill="#ffffff" fill-opacity="1"><g transform="translate(181.804137, 116.201092)"><g><path d="M 0.921875 -3.0625 C 0.984375 -3.582031 1.164062 -4.035156 1.46875 -4.421875 C 1.789062 -4.847656 2.269531 -5.207031 2.90625 -5.5 C 3.601562 -5.832031 4.414062 -6.046875 5.34375 -6.140625 C 6.34375 -6.234375 7.539062 -6.207031 8.9375 -6.0625 L 9.03125 -7.03125 C 9.132812 -8 9 -8.75 8.625 -9.28125 C 8.25 -9.832031 7.671875 -10.148438 6.890625 -10.234375 C 6.367188 -10.285156 5.914062 -10.257812 5.53125 -10.15625 C 5.144531 -10.050781 4.820312 -9.9375 4.5625 -9.8125 C 4.070312 -9.59375 3.816406 -9.46875 3.796875 -9.4375 C 3.617188 -9.332031 3.425781 -9.289062 3.21875 -9.3125 C 3.050781 -9.332031 2.921875 -9.378906 2.828125 -9.453125 C 2.734375 -9.546875 2.660156 -9.648438 2.609375 -9.765625 L 2.3125 -10.5 C 3 -11.050781 3.785156 -11.460938 4.671875 -11.734375 C 5.429688 -11.972656 6.320312 -12.039062 7.34375 -11.9375 C 8.050781 -11.851562 8.65625 -11.675781 9.15625 -11.40625 C 9.675781 -11.113281 10.09375 -10.753906 10.40625 -10.328125 C 10.726562 -9.890625 10.953125 -9.367188 11.078125 -8.765625 C 11.191406 -8.210938 11.210938 -7.570312 11.140625 -6.84375 L 10.46875 -0.671875 C 11.175781 -0.441406 11.578125 -0.304688 11.671875 -0.265625 L 11.6875 -0.3125 C 11.78125 -0.28125 11.859375 -0.21875 11.921875 -0.125 C 11.984375 -0.0390625 12.003906 0.0546875 11.984375 0.171875 L 11.875 1.21875 L 10.28125 1.0625 L 10.109375 1.03125 L 9.34375 0.953125 C 9.1875 0.929688 9.019531 0.882812 8.84375 0.8125 C 8.738281 0.757812 8.671875 0.617188 8.640625 0.390625 L 8.515625 -0.8125 C 8.316406 -0.675781 7.957031 -0.445312 7.4375 -0.125 C 7.101562 0.09375 6.765625 0.253906 6.421875 0.359375 C 5.992188 0.492188 5.625 0.578125 5.3125 0.609375 C 4.96875 0.660156 4.523438 0.65625 3.984375 0.59375 C 3.523438 0.550781 3.085938 0.429688 2.671875 0.234375 C 2.203125 0.015625 1.859375 -0.21875 1.640625 -0.46875 C 1.390625 -0.769531 1.1875 -1.128906 1.03125 -1.546875 C 0.894531 -1.972656 0.859375 -2.476562 0.921875 -3.0625 Z M 2.96875 -2.9375 C 2.9375 -2.675781 2.96875 -2.394531 3.0625 -2.09375 C 3.144531 -1.832031 3.265625 -1.617188 3.421875 -1.453125 C 3.609375 -1.296875 3.816406 -1.164062 4.046875 -1.0625 C 4.285156 -0.957031 4.539062 -0.890625 4.8125 -0.859375 C 5.132812 -0.828125 5.484375 -0.832031 5.859375 -0.875 C 6.160156 -0.90625 6.472656 -0.976562 6.796875 -1.09375 C 7.035156 -1.175781 7.320312 -1.328125 7.65625 -1.546875 C 7.832031 -1.648438 8.101562 -1.851562 8.46875 -2.15625 L 8.734375 -4.6875 C 7.679688 -4.800781 6.832031 -4.835938 6.1875 -4.796875 C 5.59375 -4.742188 5.003906 -4.628906 4.421875 -4.453125 C 3.929688 -4.304688 3.578125 -4.097656 3.359375 -3.828125 C 3.128906 -3.546875 3 -3.25 2.96875 -2.9375 Z M 2.96875 -2.9375 "/></g></g></g><g fill="#ffffff" fill-opacity="1"><g transform="translate(193.38148, 117.49272)"><g><path d="M 2.6875 -10.75 L 2.859375 -11.578125 L 4.90625 -11.40625 L 6.203125 -15.046875 C 6.222656 -15.171875 6.296875 -15.257812 6.421875 -15.3125 C 6.503906 -15.351562 6.617188 -15.359375 6.765625 -15.328125 L 7.828125 -15.109375 L 6.921875 -10.9375 L 10.40625 -10.171875 L 10.0625 -8.609375 L 6.578125 -9.375 L 4.984375 -2.09375 C 4.867188 -1.570312 4.90625 -1.164062 5.09375 -0.875 C 5.28125 -0.582031 5.582031 -0.390625 6 -0.296875 C 6.1875 -0.253906 6.398438 -0.238281 6.640625 -0.25 C 6.753906 -0.257812 6.910156 -0.300781 7.109375 -0.375 C 7.140625 -0.375 7.191406 -0.390625 7.265625 -0.421875 C 7.347656 -0.453125 7.398438 -0.472656 7.421875 -0.484375 C 7.554688 -0.523438 7.640625 -0.539062 7.671875 -0.53125 C 7.785156 -0.507812 7.878906 -0.425781 7.953125 -0.28125 L 8.34375 0.859375 C 7.820312 1.148438 7.316406 1.328125 6.828125 1.390625 C 6.253906 1.460938 5.691406 1.4375 5.140625 1.3125 C 4.210938 1.113281 3.546875 0.6875 3.140625 0.03125 C 2.734375 -0.59375 2.644531 -1.421875 2.875 -2.453125 L 4.484375 -9.859375 L 3.03125 -10.171875 C 2.882812 -10.203125 2.773438 -10.257812 2.703125 -10.34375 C 2.648438 -10.425781 2.644531 -10.5625 2.6875 -10.75 Z M 2.6875 -10.75 "/></g></g></g><g fill="#ffffff" fill-opacity="1"><g transform="translate(201.233882, 119.072038)"><g><path d="M 2.484375 -5.984375 C 2.765625 -6.835938 3.144531 -7.554688 3.625 -8.140625 C 4.132812 -8.785156 4.710938 -9.285156 5.359375 -9.640625 C 6.023438 -10.003906 6.738281 -10.222656 7.5 -10.296875 C 8.269531 -10.378906 9.09375 -10.273438 9.96875 -9.984375 L 9.921875 -10 C 10.597656 -9.769531 11.207031 -9.4375 11.75 -9 C 12.289062 -8.570312 12.695312 -8.070312 12.96875 -7.5 C 13.269531 -6.820312 13.425781 -6.148438 13.4375 -5.484375 C 13.457031 -4.710938 13.335938 -3.929688 13.078125 -3.140625 C 12.960938 -2.804688 12.847656 -2.601562 12.734375 -2.53125 C 12.617188 -2.4375 12.46875 -2.421875 12.28125 -2.484375 L 4.4375 -5.078125 C 4.21875 -4.398438 4.101562 -3.71875 4.09375 -3.03125 C 4.101562 -2.46875 4.210938 -1.929688 4.421875 -1.421875 C 4.628906 -0.929688 4.929688 -0.53125 5.328125 -0.21875 C 5.734375 0.144531 6.203125 0.410156 6.734375 0.578125 C 7.285156 0.765625 7.753906 0.863281 8.140625 0.875 C 8.441406 0.863281 8.8125 0.835938 9.25 0.796875 C 9.476562 0.753906 9.738281 0.703125 10.03125 0.640625 C 10.269531 0.585938 10.457031 0.582031 10.59375 0.625 C 10.75 0.675781 10.851562 0.78125 10.90625 0.9375 L 11.25 1.921875 C 10.925781 2.128906 10.53125 2.285156 10.0625 2.390625 C 9.46875 2.523438 9.019531 2.59375 8.71875 2.59375 C 8.132812 2.582031 7.671875 2.554688 7.328125 2.515625 C 6.828125 2.421875 6.390625 2.3125 6.015625 2.1875 C 5.179688 1.90625 4.472656 1.523438 3.890625 1.046875 C 3.328125 0.554688 2.875 -0.0546875 2.53125 -0.796875 C 2.207031 -1.441406 2.039062 -2.222656 2.03125 -3.140625 C 2 -4.023438 2.148438 -4.972656 2.484375 -5.984375 Z M 4.953125 -6.3125 L 11.359375 -4.203125 C 11.515625 -4.679688 11.59375 -5.132812 11.59375 -5.5625 C 11.59375 -6.070312 11.519531 -6.484375 11.375 -6.796875 C 11.195312 -7.171875 10.953125 -7.5 10.640625 -7.78125 C 10.316406 -8.0625 9.921875 -8.28125 9.453125 -8.4375 L 9.453125 -8.46875 C 8.453125 -8.800781 7.578125 -8.769531 6.828125 -8.375 C 6.046875 -7.957031 5.421875 -7.269531 4.953125 -6.3125 Z M 9.234375 -11.96875 L 11.875 -14.203125 C 12.019531 -14.347656 12.171875 -14.441406 12.328125 -14.484375 C 12.472656 -14.515625 12.675781 -14.488281 12.9375 -14.40625 L 14.984375 -13.734375 L 11.25 -11.65625 C 11.132812 -11.550781 11.007812 -11.492188 10.875 -11.484375 C 10.8125 -11.472656 10.664062 -11.503906 10.4375 -11.578125 Z M 9.234375 -11.96875 "/></g></g></g><g fill="#ffffff" fill-opacity="1"><g transform="translate(211.673343, 122.447771)"><g><path d="M -0.28125 1.15625 C -0.03125 0.613281 0.367188 0.226562 0.921875 0 C 1.472656 -0.226562 2.109375 -0.304688 2.828125 -0.234375 C 2.566406 -0.515625 2.40625 -0.832031 2.34375 -1.1875 C 2.289062 -1.539062 2.359375 -1.914062 2.546875 -2.3125 C 2.597656 -2.40625 2.703125 -2.550781 2.859375 -2.75 C 2.984375 -2.914062 3.148438 -3.054688 3.359375 -3.171875 C 3.578125 -3.285156 3.8125 -3.378906 4.0625 -3.453125 C 4.101562 -3.460938 4.375 -3.492188 4.875 -3.546875 C 4.46875 -4.117188 4.234375 -4.738281 4.171875 -5.40625 C 4.085938 -6.050781 4.210938 -6.722656 4.546875 -7.421875 C 4.816406 -7.992188 5.148438 -8.441406 5.546875 -8.765625 C 5.972656 -9.097656 6.445312 -9.332031 6.96875 -9.46875 C 7.476562 -9.601562 8.054688 -9.632812 8.703125 -9.5625 C 9.285156 -9.476562 9.890625 -9.285156 10.515625 -8.984375 L 10.453125 -8.96875 C 10.941406 -8.738281 11.367188 -8.472656 11.734375 -8.171875 C 12.078125 -7.878906 12.378906 -7.535156 12.640625 -7.140625 L 15.71875 -5.6875 L 15.375 -4.96875 C 15.257812 -4.71875 15.03125 -4.632812 14.6875 -4.71875 L 13.328125 -5.125 C 13.367188 -4.59375 13.238281 -4.003906 12.9375 -3.359375 C 12.675781 -2.804688 12.335938 -2.363281 11.921875 -2.03125 C 11.460938 -1.664062 11 -1.425781 10.53125 -1.3125 C 9.96875 -1.164062 9.40625 -1.125 8.84375 -1.1875 C 8.269531 -1.25 7.660156 -1.429688 7.015625 -1.734375 C 6.492188 -1.984375 6.035156 -2.28125 5.640625 -2.625 C 5.390625 -2.601562 5.140625 -2.53125 4.890625 -2.40625 C 4.679688 -2.289062 4.539062 -2.15625 4.46875 -2 C 4.332031 -1.726562 4.34375 -1.476562 4.5 -1.25 C 4.695312 -0.96875 4.9375 -0.734375 5.21875 -0.546875 C 5.664062 -0.265625 6.054688 -0.046875 6.390625 0.109375 C 6.691406 0.242188 7.140625 0.488281 7.734375 0.84375 C 8.472656 1.269531 8.90625 1.539062 9.03125 1.65625 C 9.425781 1.945312 9.769531 2.269531 10.0625 2.625 C 10.332031 2.9375 10.503906 3.332031 10.578125 3.8125 C 10.640625 4.21875 10.546875 4.679688 10.296875 5.203125 C 10.046875 5.722656 9.695312 6.140625 9.25 6.453125 C 8.851562 6.742188 8.316406 6.972656 7.640625 7.140625 C 7.035156 7.285156 6.351562 7.3125 5.59375 7.21875 C 4.863281 7.113281 4.078125 6.863281 3.234375 6.46875 C 2.378906 6.0625 1.691406 5.632812 1.171875 5.1875 C 0.617188 4.71875 0.210938 4.257812 -0.046875 3.8125 C -0.328125 3.34375 -0.476562 2.878906 -0.5 2.421875 C -0.519531 1.929688 -0.445312 1.507812 -0.28125 1.15625 Z M 1.546875 1.8125 C 1.429688 2.050781 1.390625 2.316406 1.421875 2.609375 C 1.453125 2.910156 1.5625 3.191406 1.75 3.453125 C 1.96875 3.773438 2.238281 4.0625 2.5625 4.3125 C 2.96875 4.601562 3.425781 4.867188 3.9375 5.109375 C 4.34375 5.304688 4.832031 5.476562 5.40625 5.625 C 5.832031 5.726562 6.257812 5.757812 6.6875 5.71875 C 7.0625 5.6875 7.378906 5.582031 7.640625 5.40625 C 7.929688 5.207031 8.140625 4.976562 8.265625 4.71875 L 8.28125 4.734375 C 8.40625 4.460938 8.4375 4.207031 8.375 3.96875 C 8.300781 3.71875 8.148438 3.488281 7.921875 3.28125 C 7.679688 3.050781 7.410156 2.835938 7.109375 2.640625 C 6.546875 2.285156 6.195312 2.066406 6.0625 1.984375 C 5.925781 1.921875 5.734375 1.820312 5.484375 1.6875 C 5.234375 1.5625 5.039062 1.460938 4.90625 1.390625 C 4.820312 1.347656 4.460938 1.125 3.828125 0.71875 C 3.316406 0.71875 2.859375 0.800781 2.453125 0.96875 C 2.035156 1.125 1.734375 1.40625 1.546875 1.8125 Z M 6.296875 -6.453125 C 6.148438 -6.128906 6.066406 -5.789062 6.046875 -5.4375 C 6.015625 -5.0625 6.054688 -4.753906 6.171875 -4.515625 C 6.316406 -4.191406 6.503906 -3.910156 6.734375 -3.671875 C 6.972656 -3.429688 7.285156 -3.21875 7.671875 -3.03125 L 7.65625 -2.984375 C 8.03125 -2.804688 8.410156 -2.695312 8.796875 -2.65625 C 9.128906 -2.632812 9.460938 -2.671875 9.796875 -2.765625 C 10.109375 -2.859375 10.378906 -3.03125 10.609375 -3.28125 C 10.867188 -3.550781 11.066406 -3.832031 11.203125 -4.125 C 11.523438 -4.800781 11.566406 -5.441406 11.328125 -6.046875 C 11.085938 -6.648438 10.570312 -7.132812 9.78125 -7.5 C 9 -7.875 8.300781 -7.960938 7.6875 -7.765625 C 7.09375 -7.578125 6.628906 -7.140625 6.296875 -6.453125 Z M 6.296875 -6.453125 "/></g></g></g><g fill="#ffffff" fill-opacity="1"><g transform="translate(222.105943, 127.486576)"><g><path d="M 0.640625 0.390625 L 1.171875 -0.5 C 1.234375 -0.601562 1.316406 -0.671875 1.421875 -0.703125 C 1.535156 -0.742188 1.644531 -0.75 1.75 -0.71875 L 3.109375 -0.234375 L 7.65625 -7.8125 C 7.039062 -8.351562 6.679688 -8.675781 6.578125 -8.78125 C 6.492188 -8.84375 6.441406 -8.929688 6.421875 -9.046875 C 6.410156 -9.160156 6.429688 -9.265625 6.484375 -9.359375 L 7.015625 -10.25 L 10.40625 -8.21875 L 4.953125 0.875 C 5.546875 1.414062 5.898438 1.738281 6.015625 1.84375 C 6.097656 1.914062 6.144531 2.003906 6.15625 2.109375 C 6.164062 2.222656 6.140625 2.332031 6.078125 2.4375 L 5.546875 3.328125 Z M 10.15625 -12.90625 C 10.289062 -13.125 10.4375 -13.28125 10.59375 -13.375 C 10.800781 -13.507812 10.984375 -13.59375 11.140625 -13.625 C 11.328125 -13.664062 11.53125 -13.6875 11.75 -13.6875 C 11.925781 -13.664062 12.113281 -13.59375 12.3125 -13.46875 C 12.507812 -13.351562 12.660156 -13.222656 12.765625 -13.078125 C 12.867188 -12.890625 12.941406 -12.703125 12.984375 -12.515625 C 13.035156 -12.359375 13.050781 -12.160156 13.03125 -11.921875 C 13.007812 -11.691406 12.941406 -11.484375 12.828125 -11.296875 C 12.734375 -11.128906 12.59375 -10.988281 12.40625 -10.875 C 12.226562 -10.769531 12.046875 -10.691406 11.859375 -10.640625 C 11.671875 -10.585938 11.476562 -10.566406 11.28125 -10.578125 C 11.09375 -10.597656 10.898438 -10.664062 10.703125 -10.78125 C 10.503906 -10.90625 10.359375 -11.039062 10.265625 -11.1875 C 10.140625 -11.363281 10.054688 -11.546875 10.015625 -11.734375 C 9.972656 -11.929688 9.957031 -12.132812 9.96875 -12.34375 C 9.976562 -12.53125 10.039062 -12.71875 10.15625 -12.90625 Z M 10.15625 -12.90625 "/></g></g></g><g fill="#ffffff" fill-opacity="1"><g transform="translate(227.536427, 130.494635)"><g><path d="M 4.15625 -4.59375 L 4.1875 -4.625 C 5.375 -6.207031 6.742188 -7.15625 8.296875 -7.46875 C 9.765625 -7.757812 11.132812 -7.425781 12.40625 -6.46875 C 13.46875 -5.664062 14.59375 -4.609375 15.78125 -3.296875 L 16.390625 -2.625 L 7.78125 8.84375 C 8.394531 9.488281 8.753906 9.878906 8.859375 10.015625 C 9.035156 10.210938 9.046875 10.410156 8.890625 10.609375 L 8.265625 11.4375 L 3.34375 7.75 L 3.96875 6.921875 C 4.113281 6.722656 4.296875 6.664062 4.515625 6.75 C 4.679688 6.820312 5.1875 7.082031 6.03125 7.53125 L 8.578125 4.140625 L 8.5625 4.125 C 6.863281 4.5 5.382812 4.210938 4.125 3.265625 C 2.96875 2.398438 2.375 1.289062 2.34375 -0.0625 C 2.363281 -1.5 2.96875 -3.007812 4.15625 -4.59375 Z M 5.9375 -3.265625 C 4.101562 -0.828125 4.035156 1.03125 5.734375 2.3125 C 6.765625 3.082031 8.035156 3.25 9.546875 2.8125 L 13.78125 -2.84375 C 13.132812 -3.644531 12.4375 -4.328125 11.6875 -4.890625 L 11.5625 -4.984375 C 10.21875 -5.941406 8.832031 -5.875 7.40625 -4.78125 C 6.882812 -4.375 6.523438 -4.039062 6.328125 -3.78125 Z M 5.9375 -3.265625 "/></g></g></g><g fill="#ffffff" fill-opacity="1"><g transform="translate(237.534268, 137.834039)"><g><path d="M 8.3125 -7.78125 L 9.03125 -8.515625 L 11.828125 -5.71875 L 6.25 -0.140625 C 5.5625 0.546875 5.191406 1.21875 5.140625 1.875 C 5.078125 2.539062 5.359375 3.1875 5.984375 3.8125 L 5.96875 3.84375 C 6.820312 4.695312 8.015625 5.078125 9.546875 4.984375 L 14.75 -0.21875 C 14.695312 -0.34375 14.4375 -0.734375 13.96875 -1.390625 C 13.832031 -1.597656 13.859375 -1.796875 14.046875 -1.984375 L 14.796875 -2.734375 L 17.578125 0.046875 L 10.046875 7.5625 C 10.492188 8.226562 10.753906 8.628906 10.828125 8.765625 C 10.960938 8.960938 10.941406 9.148438 10.765625 9.328125 L 10.015625 10.078125 L 7.859375 7.921875 C 7.648438 7.710938 7.617188 7.460938 7.765625 7.171875 L 8.59375 6.109375 C 6.820312 6.222656 5.378906 5.71875 4.265625 4.59375 C 3.328125 3.65625 2.910156 2.617188 3.015625 1.484375 C 3.128906 0.359375 3.675781 -0.691406 4.65625 -1.671875 L 9.015625 -6 C 8.578125 -6.632812 8.316406 -7.03125 8.234375 -7.1875 C 8.097656 -7.394531 8.125 -7.59375 8.3125 -7.78125 Z M 8.3125 -7.78125 "/></g></g></g><g fill="#ffffff" fill-opacity="1"><g transform="translate(247.202681, 147.55664)"><g><path d="M 5.453125 -3.515625 C 6.128906 -4.035156 6.851562 -4.410156 7.625 -4.640625 C 8.4375 -4.878906 9.1875 -4.96875 9.875 -4.90625 C 10.601562 -4.832031 11.320312 -4.601562 12.03125 -4.21875 C 12.707031 -3.851562 13.320312 -3.304688 13.875 -2.578125 L 13.828125 -2.625 C 14.265625 -2.050781 14.582031 -1.425781 14.78125 -0.75 C 14.976562 -0.09375 15.03125 0.546875 14.9375 1.171875 C 14.800781 1.898438 14.550781 2.539062 14.1875 3.09375 C 13.769531 3.726562 13.226562 4.300781 12.5625 4.8125 C 12.257812 5.03125 12.054688 5.144531 11.953125 5.15625 C 11.796875 5.164062 11.65625 5.085938 11.53125 4.921875 L 6.546875 -1.640625 C 5.953125 -1.191406 5.472656 -0.703125 5.109375 -0.171875 C 4.804688 0.265625 4.585938 0.769531 4.453125 1.34375 C 4.347656 1.863281 4.367188 2.363281 4.515625 2.84375 C 4.660156 3.382812 4.894531 3.867188 5.21875 4.296875 C 5.570312 4.765625 5.898438 5.109375 6.203125 5.328125 C 6.460938 5.484375 6.785156 5.675781 7.171875 5.90625 C 7.441406 6.03125 7.6875 6.132812 7.90625 6.21875 C 8.132812 6.3125 8.285156 6.410156 8.359375 6.515625 C 8.472656 6.648438 8.507812 6.800781 8.46875 6.96875 L 8.1875 7.953125 C 7.800781 7.941406 7.378906 7.847656 6.921875 7.671875 C 6.347656 7.429688 5.945312 7.234375 5.71875 7.078125 C 5.25 6.742188 4.882812 6.460938 4.625 6.234375 C 4.269531 5.890625 3.96875 5.554688 3.71875 5.234375 C 3.1875 4.523438 2.820312 3.804688 2.625 3.078125 C 2.4375 2.347656 2.40625 1.582031 2.53125 0.78125 C 2.644531 0.0625 2.953125 -0.675781 3.453125 -1.4375 C 3.941406 -2.1875 4.609375 -2.878906 5.453125 -3.515625 Z M 7.671875 -2.390625 L 11.75 3 C 12.132812 2.707031 12.453125 2.375 12.703125 2 C 12.992188 1.550781 13.171875 1.164062 13.234375 0.84375 C 13.316406 0.457031 13.300781 0.0546875 13.1875 -0.359375 C 13.082031 -0.773438 12.878906 -1.1875 12.578125 -1.59375 L 12.609375 -1.59375 C 11.972656 -2.445312 11.238281 -2.921875 10.40625 -3.015625 C 9.507812 -3.109375 8.597656 -2.898438 7.671875 -2.390625 Z M 7.671875 -2.390625 "/></g></g></g></svg>